<?xml version="1.0" encoding="UTF-8"?><svg xmlns="http://www.w3.org/2000/svg" xmlns:xlink="http://www.w3.org/1999/xlink" contentScriptType="text/ecmascript" width="375pt" zoomAndPan="magnify" contentStyleType="text/css" viewBox="0 0 375 374.999991" height="374.999991pt" preserveAspectRatio="xMidYMid meet" version="1.2"><defs><clipPath xml:id="clip1" id="clip1"><path d="M 26 3.777344 L 349 3.777344 L 349 370 L 26 370 Z M 26 3.777344 "/></clipPath></defs><g xml:id="surface1" id="surface1"><g clip-rule="nonzero" clip-path="url(#clip1)"><path style=" stroke:none;fill-rule:nonzero;fill:rgb(0%,29.019165%,67.83905%);fill-opacity:1;" d="M 186.90625 3.777344 C 184.792969 3.859375 182.792969 4.375 180.902344 5.320312 L 34.554688 78.53125 C 33.339844 79.136719 32.230469 79.898438 31.226562 80.816406 C 30.226562 81.734375 29.367188 82.773438 28.652344 83.929688 C 27.9375 85.085938 27.394531 86.316406 27.023438 87.625 C 26.652344 88.933594 26.464844 90.265625 26.464844 91.625 L 26.464844 262.375 C 26.46875 263.609375 26.621094 264.824219 26.929688 266.015625 C 27.238281 267.210938 27.6875 268.347656 28.28125 269.425781 C 28.878906 270.507812 29.597656 271.496094 30.441406 272.394531 C 31.285156 273.292969 32.226562 274.070312 33.269531 274.730469 L 179.617188 367.527344 C 180.789062 368.269531 182.039062 368.832031 183.371094 369.21875 C 184.703125 369.605469 186.0625 369.800781 187.449219 369.800781 C 188.835938 369.800781 190.195312 369.605469 191.527344 369.21875 C 192.859375 368.832031 194.109375 368.269531 195.28125 367.527344 L 341.628906 274.730469 C 342.671875 274.070312 343.613281 273.292969 344.457031 272.394531 C 345.300781 271.496094 346.023438 270.507812 346.617188 269.425781 C 347.210938 268.347656 347.660156 267.210938 347.96875 266.015625 C 348.277344 264.824219 348.433594 263.609375 348.433594 262.375 L 348.433594 91.625 C 348.433594 90.265625 348.246094 88.933594 347.875 87.625 C 347.503906 86.316406 346.960938 85.085938 346.246094 83.929688 C 345.535156 82.773438 344.675781 81.734375 343.671875 80.816406 C 342.667969 79.898438 341.558594 79.136719 340.34375 78.53125 L 193.996094 5.320312 C 191.765625 4.203125 189.402344 3.6875 186.90625 3.777344 Z M 187.449219 34.777344 L 310.246094 96.203125 L 275.257812 118.480469 L 275.257812 150.191406 L 202.085938 194.117188 L 202.085938 281.964844 L 268.140625 242.300781 C 272.5625 239.667969 275.257812 234.886719 275.257812 229.746094 L 275.257812 153.195312 L 319.164062 125.226562 L 319.164062 254.3125 L 202.085938 328.550781 L 202.085938 281.964844 L 187.449219 291.402344 L 172.816406 281.964844 L 172.816406 328.550781 L 55.734375 254.3125 L 55.734375 125.226562 L 99.640625 153.195312 L 99.640625 229.746094 C 99.640625 234.886719 102.339844 239.667969 106.757812 242.300781 L 172.816406 281.964844 L 172.816406 194.117188 L 99.640625 150.191406 L 99.640625 118.480469 L 64.652344 96.203125 Z M 99.640625 118.566406 L 187.449219 173.46875 L 275.257812 118.566406 L 200.855469 80.214844 C 192.441406 75.882812 182.457031 75.882812 174.042969 80.214844 Z M 99.640625 118.566406 "/></g></g></svg>