<?xml version="1.0" encoding="UTF-8"?><svg xmlns="http://www.w3.org/2000/svg" xmlns:xlink="http://www.w3.org/1999/xlink" contentScriptType="text/ecmascript" width="375pt" zoomAndPan="magnify" contentStyleType="text/css" viewBox="0 0 375 374.999991" height="374.999991pt" preserveAspectRatio="xMidYMid meet" version="1.2"><defs><g/><clipPath xml:id="clip1" id="clip1"><path d="M 148.046875 150.710938 L 226.796875 150.710938 L 226.796875 240.710938 L 148.046875 240.710938 Z M 148.046875 150.710938 "/></clipPath></defs><g xml:id="surface1" id="surface1"><g clip-rule="nonzero" clip-path="url(#clip1)"><path style=" stroke:none;fill-rule:nonzero;fill:rgb(0%,29.019165%,67.83905%);fill-opacity:1;" d="M 187.289062 150.710938 C 186.773438 150.730469 186.289062 150.855469 185.828125 151.089844 L 150.175781 169.015625 C 149.570312 169.320312 149.089844 169.761719 148.738281 170.339844 C 148.382812 170.917969 148.203125 171.546875 148.203125 172.222656 L 148.203125 214.039062 C 148.203125 214.65625 148.351562 215.230469 148.648438 215.765625 C 148.941406 216.304688 149.347656 216.738281 149.863281 217.066406 L 185.515625 239.792969 C 186.097656 240.164062 186.730469 240.347656 187.421875 240.347656 C 188.109375 240.347656 188.746094 240.164062 189.328125 239.792969 L 224.980469 217.066406 C 225.496094 216.738281 225.902344 216.304688 226.195312 215.765625 C 226.492188 215.230469 226.636719 214.65625 226.640625 214.039062 L 226.640625 172.222656 C 226.640625 171.546875 226.460938 170.917969 226.105469 170.339844 C 225.75 169.761719 225.273438 169.320312 224.667969 169.015625 L 189.015625 151.089844 C 188.472656 150.816406 187.898438 150.6875 187.289062 150.710938 Z M 187.421875 158.300781 L 217.335938 173.34375 L 208.8125 178.800781 L 208.8125 186.566406 L 190.988281 197.324219 L 190.988281 218.839844 L 207.078125 209.125 C 208.15625 208.480469 208.8125 207.308594 208.8125 206.050781 L 208.8125 187.300781 L 219.507812 180.453125 L 219.507812 212.066406 L 190.988281 230.246094 L 190.988281 218.839844 L 187.421875 221.148438 L 183.855469 218.839844 L 183.855469 230.246094 L 155.335938 212.066406 L 155.335938 180.453125 L 166.03125 187.300781 L 166.03125 206.050781 C 166.03125 207.308594 166.6875 208.480469 167.765625 209.125 L 183.855469 218.839844 L 183.855469 197.324219 L 166.03125 186.566406 L 166.03125 178.800781 L 157.507812 173.34375 Z M 166.03125 178.820312 L 187.421875 192.269531 L 208.8125 178.820312 L 190.6875 169.429688 C 188.636719 168.367188 186.207031 168.367188 184.15625 169.429688 Z M 166.03125 178.820312 "/></g><g style="fill:rgb(0%,29.019165%,67.83905%);fill-opacity:1;"><g transform="translate(145.685107, 273.92415)"><path style="stroke:none;" d="M 12.960938 0 L 12.960938 -2.46875 L 3.085938 -2.46875 L 3.085938 -9.875 L 12.960938 -9.875 L 12.960938 -12.34375 L 3.085938 -12.34375 C 1.726562 -12.34375 0.617188 -11.230469 0.617188 -9.875 L 0.617188 -2.46875 C 0.617188 -1.109375 1.726562 0 3.085938 0 Z M 12.960938 0 "/></g></g><g style="fill:rgb(0%,29.019165%,67.83905%);fill-opacity:1;"><g transform="translate(159.632737, 273.92415)"><path style="stroke:none;" d="M 10.492188 0 C 11.863281 0 12.960938 -1.125 12.960938 -2.46875 L 12.960938 -9.875 C 12.960938 -11.230469 11.847656 -12.34375 10.492188 -12.34375 L 3.085938 -12.34375 C 1.726562 -12.34375 0.617188 -11.230469 0.617188 -9.875 L 0.617188 -2.46875 C 0.617188 -1.109375 1.726562 0 3.085938 0 Z M 3.085938 -9.875 L 10.492188 -9.875 L 10.492188 -2.46875 L 3.085938 -2.46875 Z M 3.085938 -9.875 "/></g></g><g style="fill:rgb(0%,29.019165%,67.83905%);fill-opacity:1;"><g transform="translate(173.580367, 273.92415)"><path style="stroke:none;" d="M 12.960938 -12.34375 L 3.085938 -12.34375 C 1.726562 -12.34375 0.617188 -11.230469 0.617188 -9.875 L 0.617188 -7.40625 C 0.617188 -6.046875 1.726562 -4.9375 3.085938 -4.9375 L 10.492188 -4.9375 L 10.492188 -2.46875 L 0.617188 -2.46875 L 0.617188 0 L 10.492188 0 C 11.847656 0 12.960938 -1.109375 12.960938 -2.46875 L 12.960938 -4.9375 C 12.960938 -6.296875 11.847656 -7.40625 10.492188 -7.40625 L 3.085938 -7.40625 L 3.085938 -9.875 L 12.960938 -9.875 Z M 12.960938 -12.34375 "/></g></g><g style="fill:rgb(0%,29.019165%,67.83905%);fill-opacity:1;"><g transform="translate(187.527998, 273.92415)"><path style="stroke:none;" d="M 3.085938 -12.34375 C 1.726562 -12.34375 0.617188 -11.230469 0.617188 -9.875 L 0.617188 0 L 3.085938 0 L 3.085938 -9.875 L 5.554688 -9.875 L 5.554688 0 L 8.023438 0 L 8.023438 -9.875 L 10.492188 -9.875 L 10.492188 0 L 12.960938 0 L 12.960938 -9.875 C 12.960938 -11.230469 11.847656 -12.34375 10.492188 -12.34375 Z M 3.085938 -12.34375 "/></g></g><g style="fill:rgb(85.099792%,85.099792%,85.099792%);fill-opacity:1;"><g transform="translate(201.780826, 273.92415)"><path style="stroke:none;" d="M 10.492188 0 C 11.863281 0 12.960938 -1.125 12.960938 -2.46875 L 12.960938 -9.875 C 12.960938 -11.230469 11.847656 -12.34375 10.492188 -12.34375 L 3.085938 -12.34375 C 1.726562 -12.34375 0.617188 -11.230469 0.617188 -9.875 L 0.617188 -2.46875 C 0.617188 -1.109375 1.726562 0 3.085938 0 Z M 3.085938 -9.875 L 10.492188 -9.875 L 10.492188 -2.46875 L 3.085938 -2.46875 Z M 3.085938 -9.875 "/></g></g><g style="fill:rgb(85.099792%,85.099792%,85.099792%);fill-opacity:1;"><g transform="translate(215.728457, 273.92415)"><path style="stroke:none;" d="M 12.960938 -12.34375 L 3.085938 -12.34375 C 1.726562 -12.34375 0.617188 -11.230469 0.617188 -9.875 L 0.617188 -7.40625 C 0.617188 -6.046875 1.726562 -4.9375 3.085938 -4.9375 L 10.492188 -4.9375 L 10.492188 -2.46875 L 0.617188 -2.46875 L 0.617188 0 L 10.492188 0 C 11.847656 0 12.960938 -1.109375 12.960938 -2.46875 L 12.960938 -4.9375 C 12.960938 -6.296875 11.847656 -7.40625 10.492188 -7.40625 L 3.085938 -7.40625 L 3.085938 -9.875 L 12.960938 -9.875 Z M 12.960938 -12.34375 "/></g></g><g style="fill:rgb(0%,29.019165%,67.83905%);fill-opacity:1;"><g transform="translate(62.046994, 146.128198)"><path style="stroke:none;" d="M 25.898438 0 L 25.898438 -4.933594 L 6.167969 -4.933594 L 6.167969 -19.730469 L 25.898438 -19.730469 L 25.898438 -24.664062 L 6.167969 -24.664062 C 3.453125 -24.664062 1.234375 -22.445312 1.234375 -19.730469 L 1.234375 -4.933594 C 1.234375 -2.21875 3.453125 0 6.167969 0 Z M 25.898438 0 "/></g></g><g style="fill:rgb(0%,29.019165%,67.83905%);fill-opacity:1;"><g transform="translate(89.917587, 146.128198)"><path style="stroke:none;" d="M 20.964844 0 C 23.675781 0 25.898438 -2.21875 25.898438 -4.933594 L 25.898438 -24.664062 L 20.964844 -24.664062 L 20.964844 -4.933594 L 6.167969 -4.933594 L 6.167969 -24.664062 L 1.234375 -24.664062 L 1.234375 -4.933594 C 1.234375 -2.21875 3.453125 0 6.167969 0 Z M 20.964844 0 "/></g></g><g style="fill:rgb(0%,29.019165%,67.83905%);fill-opacity:1;"><g transform="translate(117.788179, 146.128198)"><path style="stroke:none;" d="M 25.898438 -24.664062 L 6.167969 -24.664062 C 3.453125 -24.664062 1.234375 -22.445312 1.234375 -19.730469 L 1.234375 -14.796875 C 1.234375 -12.085938 3.453125 -9.867188 6.167969 -9.867188 L 20.964844 -9.867188 L 20.964844 -4.933594 L 1.234375 -4.933594 L 1.234375 0 L 20.964844 0 C 23.675781 0 25.898438 -2.21875 25.898438 -4.933594 L 25.898438 -9.867188 C 25.898438 -12.578125 23.675781 -14.796875 20.964844 -14.796875 L 6.167969 -14.796875 L 6.167969 -19.730469 L 25.898438 -19.730469 Z M 25.898438 -24.664062 "/></g></g><g style="fill:rgb(0%,29.019165%,67.83905%);fill-opacity:1;"><g transform="translate(145.658774, 146.128198)"><path style="stroke:none;" d="M 25.898438 -24.664062 L 1.234375 -24.664062 L 1.234375 -19.730469 L 11.097656 -19.730469 L 11.097656 0 L 16.03125 0 L 16.03125 -19.730469 L 25.898438 -19.730469 Z M 25.898438 -24.664062 "/></g></g><g style="fill:rgb(0%,29.019165%,67.83905%);fill-opacity:1;"><g transform="translate(173.529365, 146.128198)"><path style="stroke:none;" d="M 20.964844 0 C 23.707031 0 25.898438 -2.25 25.898438 -4.933594 L 25.898438 -19.730469 C 25.898438 -22.445312 23.675781 -24.664062 20.964844 -24.664062 L 6.167969 -24.664062 C 3.453125 -24.664062 1.234375 -22.445312 1.234375 -19.730469 L 1.234375 -4.933594 C 1.234375 -2.21875 3.453125 0 6.167969 0 Z M 6.167969 -19.730469 L 20.964844 -19.730469 L 20.964844 -4.933594 L 6.167969 -4.933594 Z M 6.167969 -19.730469 "/></g></g><g style="fill:rgb(0%,29.019165%,67.83905%);fill-opacity:1;"><g transform="translate(201.399963, 146.128198)"><path style="stroke:none;" d="M 6.167969 -24.664062 C 3.453125 -24.664062 1.234375 -22.445312 1.234375 -19.730469 L 1.234375 0 L 6.167969 0 L 6.167969 -19.730469 L 11.097656 -19.730469 L 11.097656 0 L 16.03125 0 L 16.03125 -19.730469 L 20.964844 -19.730469 L 20.964844 0 L 25.898438 0 L 25.898438 -19.730469 C 25.898438 -22.445312 23.675781 -24.664062 20.964844 -24.664062 Z M 6.167969 -24.664062 "/></g></g><g style="fill:rgb(85.099792%,85.099792%,85.099792%);fill-opacity:1;"><g transform="translate(229.885638, 146.128198)"><path style="stroke:none;" d="M 25.898438 -19.730469 C 25.898438 -22.414062 23.707031 -24.664062 20.964844 -24.664062 L 1.234375 -24.664062 L 1.234375 0 L 20.964844 0 C 23.707031 0 25.898438 -2.25 25.898438 -4.933594 L 25.898438 -9.867188 C 25.898438 -11.222656 24.789062 -12.332031 23.429688 -12.332031 C 24.789062 -12.332031 25.898438 -13.441406 25.898438 -14.796875 Z M 20.964844 -19.730469 L 20.964844 -14.796875 L 6.167969 -14.796875 L 6.167969 -19.730469 Z M 6.167969 -4.933594 L 6.167969 -9.867188 L 20.964844 -9.867188 L 20.964844 -4.933594 Z M 6.167969 -4.933594 "/></g></g><g style="fill:rgb(85.099792%,85.099792%,85.099792%);fill-opacity:1;"><g transform="translate(257.756231, 146.128198)"><path style="stroke:none;" d="M 20.964844 0 C 23.707031 0 25.898438 -2.25 25.898438 -4.933594 L 25.898438 -19.730469 C 25.898438 -22.445312 23.675781 -24.664062 20.964844 -24.664062 L 6.167969 -24.664062 C 3.453125 -24.664062 1.234375 -22.445312 1.234375 -19.730469 L 1.234375 -4.933594 C 1.234375 -2.21875 3.453125 0 6.167969 0 Z M 6.167969 -19.730469 L 20.964844 -19.730469 L 20.964844 -4.933594 L 6.167969 -4.933594 Z M 6.167969 -19.730469 "/></g></g><g style="fill:rgb(85.099792%,85.099792%,85.099792%);fill-opacity:1;"><g transform="translate(285.626824, 146.128198)"><path style="stroke:none;" d="M 25.898438 -24.664062 L 20.964844 -24.664062 L 20.964844 -22.199219 L 13.566406 -14.796875 L 6.167969 -22.199219 L 6.167969 -24.664062 L 1.234375 -24.664062 L 1.234375 -21.210938 C 1.234375 -20.53125 1.449219 -19.945312 1.972656 -19.421875 L 9.0625 -12.332031 L 1.972656 -5.242188 C 1.480469 -4.746094 1.234375 -4.132812 1.234375 -3.453125 L 1.234375 0 L 6.167969 0 L 6.167969 -2.464844 L 13.566406 -9.867188 L 20.964844 -2.464844 L 20.964844 0 L 25.898438 0 L 25.898438 -3.453125 C 25.898438 -4.132812 25.652344 -4.746094 25.15625 -5.242188 L 18.066406 -12.332031 L 25.15625 -19.421875 C 25.683594 -19.945312 25.898438 -20.53125 25.898438 -21.210938 Z M 25.898438 -24.664062 "/></g></g><g style="fill:rgb(0%,29.019165%,67.83905%);fill-opacity:1;"><g transform="translate(128.709606, 255.613121)"><path style="stroke:none;" d="M 12.960938 -9.875 C 12.960938 -11.214844 11.863281 -12.34375 10.492188 -12.34375 L 0.617188 -12.34375 L 0.617188 0 L 10.492188 0 C 11.863281 0 12.960938 -1.125 12.960938 -2.46875 L 12.960938 -4.9375 C 12.960938 -5.617188 12.40625 -6.171875 11.726562 -6.171875 C 12.40625 -6.171875 12.960938 -6.726562 12.960938 -7.40625 Z M 10.492188 -9.875 L 10.492188 -7.40625 L 3.085938 -7.40625 L 3.085938 -9.875 Z M 3.085938 -2.46875 L 3.085938 -4.9375 L 10.492188 -4.9375 L 10.492188 -2.46875 Z M 3.085938 -2.46875 "/></g></g><g style="fill:rgb(0%,29.019165%,67.83905%);fill-opacity:1;"><g transform="translate(142.657236, 255.613121)"><path style="stroke:none;" d="M 10.492188 -7.40625 L 3.085938 -7.40625 L 3.085938 -12.34375 L 0.617188 -12.34375 L 0.617188 -7.40625 C 0.617188 -6.046875 1.726562 -4.9375 3.085938 -4.9375 L 10.492188 -4.9375 L 10.492188 -2.46875 L 0.617188 -2.46875 L 0.617188 0 L 10.492188 0 C 11.847656 0 12.960938 -1.109375 12.960938 -2.46875 L 12.960938 -12.34375 L 10.492188 -12.34375 Z M 10.492188 -7.40625 "/></g></g></g></svg>