<?xml version="1.0" encoding="UTF-8"?><svg xmlns="http://www.w3.org/2000/svg" xmlns:xlink="http://www.w3.org/1999/xlink" contentScriptType="text/ecmascript" width="375pt" zoomAndPan="magnify" contentStyleType="text/css" viewBox="0 0 375 374.999991" height="374.999991pt" preserveAspectRatio="xMidYMid meet" version="1.2"><defs><g/></defs><g xml:id="surface1" id="surface1"><g style="fill:rgb(0%,29.019165%,67.83905%);fill-opacity:1;"><g transform="translate(0.0000045, 205.646476)"><path style="stroke:none;" d="M 38.679688 0 L 38.679688 -7.367188 L 9.210938 -7.367188 L 9.210938 -29.46875 L 38.679688 -29.46875 L 38.679688 -36.835938 L 9.210938 -36.835938 C 5.15625 -36.835938 1.84375 -33.519531 1.84375 -29.46875 L 1.84375 -7.367188 C 1.84375 -3.316406 5.15625 0 9.210938 0 Z M 38.679688 0 "/></g></g><g style="fill:rgb(0%,29.019165%,67.83905%);fill-opacity:1;"><g transform="translate(41.625296, 205.646476)"><path style="stroke:none;" d="M 31.3125 0 C 35.363281 0 38.679688 -3.316406 38.679688 -7.367188 L 38.679688 -36.835938 L 31.3125 -36.835938 L 31.3125 -7.367188 L 9.210938 -7.367188 L 9.210938 -36.835938 L 1.84375 -36.835938 L 1.84375 -7.367188 C 1.84375 -3.316406 5.15625 0 9.210938 0 Z M 31.3125 0 "/></g></g><g style="fill:rgb(0%,29.019165%,67.83905%);fill-opacity:1;"><g transform="translate(83.250588, 205.646476)"><path style="stroke:none;" d="M 38.679688 -36.835938 L 9.210938 -36.835938 C 5.15625 -36.835938 1.84375 -33.519531 1.84375 -29.46875 L 1.84375 -22.101562 C 1.84375 -18.050781 5.15625 -14.734375 9.210938 -14.734375 L 31.3125 -14.734375 L 31.3125 -7.367188 L 1.84375 -7.367188 L 1.84375 0 L 31.3125 0 C 35.363281 0 38.679688 -3.316406 38.679688 -7.367188 L 38.679688 -14.734375 C 38.679688 -18.785156 35.363281 -22.101562 31.3125 -22.101562 L 9.210938 -22.101562 L 9.210938 -29.46875 L 38.679688 -29.46875 Z M 38.679688 -36.835938 "/></g></g><g style="fill:rgb(0%,29.019165%,67.83905%);fill-opacity:1;"><g transform="translate(124.875883, 205.646476)"><path style="stroke:none;" d="M 38.679688 -36.835938 L 1.84375 -36.835938 L 1.84375 -29.46875 L 16.578125 -29.46875 L 16.578125 0 L 23.945312 0 L 23.945312 -29.46875 L 38.679688 -29.46875 Z M 38.679688 -36.835938 "/></g></g><g style="fill:rgb(0%,29.019165%,67.83905%);fill-opacity:1;"><g transform="translate(166.501172, 205.646476)"><path style="stroke:none;" d="M 31.3125 0 C 35.410156 0 38.679688 -3.363281 38.679688 -7.367188 L 38.679688 -29.46875 C 38.679688 -33.519531 35.363281 -36.835938 31.3125 -36.835938 L 9.210938 -36.835938 C 5.15625 -36.835938 1.84375 -33.519531 1.84375 -29.46875 L 1.84375 -7.367188 C 1.84375 -3.316406 5.15625 0 9.210938 0 Z M 9.210938 -29.46875 L 31.3125 -29.46875 L 31.3125 -7.367188 L 9.210938 -7.367188 Z M 9.210938 -29.46875 "/></g></g><g style="fill:rgb(0%,29.019165%,67.83905%);fill-opacity:1;"><g transform="translate(208.126472, 205.646476)"><path style="stroke:none;" d="M 9.210938 -36.835938 C 5.15625 -36.835938 1.84375 -33.519531 1.84375 -29.46875 L 1.84375 0 L 9.210938 0 L 9.210938 -29.46875 L 16.578125 -29.46875 L 16.578125 0 L 23.945312 0 L 23.945312 -29.46875 L 31.3125 -29.46875 L 31.3125 0 L 38.679688 0 L 38.679688 -29.46875 C 38.679688 -33.519531 35.363281 -36.835938 31.3125 -36.835938 Z M 9.210938 -36.835938 "/></g></g><g style="fill:rgb(85.099792%,85.099792%,85.099792%);fill-opacity:1;"><g transform="translate(250.670378, 205.646476)"><path style="stroke:none;" d="M 38.679688 -29.46875 C 38.679688 -33.476562 35.410156 -36.835938 31.3125 -36.835938 L 1.84375 -36.835938 L 1.84375 0 L 31.3125 0 C 35.410156 0 38.679688 -3.363281 38.679688 -7.367188 L 38.679688 -14.734375 C 38.679688 -16.761719 37.019531 -18.417969 34.996094 -18.417969 C 37.019531 -18.417969 38.679688 -20.074219 38.679688 -22.101562 Z M 31.3125 -29.46875 L 31.3125 -22.101562 L 9.210938 -22.101562 L 9.210938 -29.46875 Z M 9.210938 -7.367188 L 9.210938 -14.734375 L 31.3125 -14.734375 L 31.3125 -7.367188 Z M 9.210938 -7.367188 "/></g></g><g style="fill:rgb(85.099792%,85.099792%,85.099792%);fill-opacity:1;"><g transform="translate(292.29567, 205.646476)"><path style="stroke:none;" d="M 31.3125 0 C 35.410156 0 38.679688 -3.363281 38.679688 -7.367188 L 38.679688 -29.46875 C 38.679688 -33.519531 35.363281 -36.835938 31.3125 -36.835938 L 9.210938 -36.835938 C 5.15625 -36.835938 1.84375 -33.519531 1.84375 -29.46875 L 1.84375 -7.367188 C 1.84375 -3.316406 5.15625 0 9.210938 0 Z M 9.210938 -29.46875 L 31.3125 -29.46875 L 31.3125 -7.367188 L 9.210938 -7.367188 Z M 9.210938 -29.46875 "/></g></g><g style="fill:rgb(85.099792%,85.099792%,85.099792%);fill-opacity:1;"><g transform="translate(333.920962, 205.646476)"><path style="stroke:none;" d="M 38.679688 -36.835938 L 31.3125 -36.835938 L 31.3125 -33.152344 L 20.261719 -22.101562 L 9.210938 -33.152344 L 9.210938 -36.835938 L 1.84375 -36.835938 L 1.84375 -31.679688 C 1.84375 -30.667969 2.164062 -29.792969 2.945312 -29.007812 L 13.539062 -18.417969 L 2.945312 -7.828125 C 2.210938 -7.089844 1.84375 -6.171875 1.84375 -5.15625 L 1.84375 0 L 9.210938 0 L 9.210938 -3.683594 L 20.261719 -14.734375 L 31.3125 -3.683594 L 31.3125 0 L 38.679688 0 L 38.679688 -5.15625 C 38.679688 -6.171875 38.308594 -7.089844 37.574219 -7.828125 L 26.984375 -18.417969 L 37.574219 -29.007812 C 38.355469 -29.792969 38.679688 -30.667969 38.679688 -31.679688 Z M 38.679688 -36.835938 "/></g></g></g></svg>